<?xml version="1.0" encoding="utf-8"?>
<!-- Generator: Adobe Illustrator 27.5.0, SVG Export Plug-In . SVG Version: 6.00 Build 0)  -->
<svg version="1.1" xmlns="http://www.w3.org/2000/svg" xmlns:xlink="http://www.w3.org/1999/xlink" x="0px" y="0px"
	 viewBox="0 0 500 500" style="enable-background:new 0 0 500 500;" xml:space="preserve">
<g id="Background_Simple">
	<g>
		<path style="fill:#92E3A9;" d="M451.665,116.959c-1.678-2.794-3.423-5.536-5.246-8.216
			c-24.277-35.671-64.693-60.093-103.971-71.153c-17.207-4.853-34.874-7.391-52.511-8.04
			c-115.678-4.203-158.174,91.175-195.445,115.767c-37.27,24.592-94.464,66.597-87.287,154.835
			c5.446,67.09,43.611,131.239,113.316,160.432c7.677,3.225,15.745,6.025,24.191,8.347c15.712,4.322,32.741,7.036,51.089,7.852
			c52.7,2.348,95.491-10.356,137.347-42.345c9.729-7.436,19.407-15.823,32.033-16.742c9.178-0.668,17.879,2.629,8.286,11.499
			c-11.275,10.425,1.734,30.929,30.356,16.684c47.803-23.792,67.467-75.123,76.731-127.319
			C491.926,254.49,486.414,174.814,451.665,116.959z"/>
		<path style="opacity:0.7;fill:#FFFFFF;" d="M451.665,116.959c-1.678-2.794-3.423-5.536-5.246-8.216
			c-24.277-35.671-64.693-60.093-103.971-71.153c-17.207-4.853-34.874-7.391-52.511-8.04
			c-115.678-4.203-158.174,91.175-195.445,115.767c-37.27,24.592-94.464,66.597-87.287,154.835
			c5.446,67.09,43.611,131.239,113.316,160.432c7.677,3.225,15.745,6.025,24.191,8.347c15.712,4.322,32.741,7.036,51.089,7.852
			c52.7,2.348,95.491-10.356,137.347-42.345c9.729-7.436,19.407-15.823,32.033-16.742c9.178-0.668,17.879,2.629,8.286,11.499
			c-11.275,10.425,1.734,30.929,30.356,16.684c47.803-23.792,67.467-75.123,76.731-127.319
			C491.926,254.49,486.414,174.814,451.665,116.959z"/>
	</g>
</g>
<g id="Space">
	<path style="fill:#263238;" d="M206.192,460.54c-3.701,0-7.53-0.086-11.382-0.259c-16.665-0.74-32.65-3.189-47.516-7.278
		c-7.577-2.083-14.991-4.641-22.04-7.602c-58.653-24.564-96.874-78.899-102.269-145.357c-2.785-34.241,4.791-63.049,23.159-88.075
		c15.514-21.136,36.192-36.283,56.228-49.502c13.067-8.622,24.731-21.675,38.237-36.789c31.751-35.531,71.268-79.751,143.519-79.751
		c2.214,0,4.477,0.042,6.728,0.123c17.019,0.626,33.382,3.123,48.622,7.422c39.15,11.023,74.262,34.861,93.935,63.768
		c1.567,2.305,3.141,4.771,4.673,7.321c34.672,57.728,36.579,137.15,26.804,192.228c-9.686,54.573-27.593,89.351-55.959,108.2
		c-0.408-2.484-1.061-4.533-1.636-6c-5.007-12.792-17.971-20.429-34.679-20.429c-1.399,0-2.829,0.052-4.249,0.156
		c-19.79,1.44-34.157,12.555-44.647,20.67c-0.898,0.694-1.793,1.388-2.69,2.073C285.667,448.488,250.249,460.54,206.192,460.54z"/>
</g>
<g id="Stars">
	<circle style="fill:#B2B2B2;" cx="362.532" cy="100.873" r="4.694"/>
	<circle style="fill:#B2B2B2;" cx="441.073" cy="180.239" r="4.694"/>
	<circle style="fill:#B2B2B2;" cx="116.786" cy="402.599" r="4.694"/>
	<circle style="fill:#B2B2B2;" cx="402.476" cy="398.525" r="4.694"/>
	<path style="fill:#B2B2B2;" d="M248.488,60.018c0,1.48-1.2,2.679-2.679,2.679c-1.48,0-2.679-1.2-2.679-2.679
		c0-1.48,1.2-2.679,2.679-2.679C247.288,57.339,248.488,58.538,248.488,60.018z"/>
	<circle style="fill:#B2B2B2;" cx="62.002" cy="221.827" r="4.694"/>
	<circle style="fill:#B2B2B2;" cx="400.24" cy="104.368" r="2.328"/>
	<circle style="fill:#92E3A9;" cx="86.944" cy="371.262" r="2.328"/>
	<circle style="fill:#92E3A9;" cx="430.606" cy="352.076" r="2.328"/>
	<path style="fill:#92E3A9;" d="M216.247,416.325c0,1.286-1.042,2.328-2.328,2.328c-1.286,0-2.328-1.042-2.328-2.328
		c0-1.286,1.042-2.328,2.328-2.328C215.205,413.996,216.247,415.039,216.247,416.325z"/>
	<path style="fill:#B2B2B2;" d="M96.947,334.169c0,1.286-1.042,2.328-2.328,2.328c-1.286,0-2.328-1.042-2.328-2.328
		c0-1.286,1.042-2.328,2.328-2.328C95.905,331.841,96.947,332.883,96.947,334.169z"/>
	<path style="fill:#B2B2B2;" d="M193.363,445.776c0,1.286-1.042,2.328-2.328,2.328s-2.328-1.042-2.328-2.328
		c0-1.286,1.042-2.328,2.328-2.328S193.363,444.49,193.363,445.776z"/>
	<path style="fill:#92E3A9;" d="M327.411,70.679c0,1.286-1.042,2.328-2.328,2.328c-1.286,0-2.328-1.042-2.328-2.328
		s1.042-2.328,2.328-2.328C326.368,68.351,327.411,69.393,327.411,70.679z"/>
	<path style="fill:#B2B2B2;" d="M331.427,325.215c0,1.286-1.042,2.328-2.328,2.328s-2.328-1.042-2.328-2.328
		s1.042-2.328,2.328-2.328S331.427,323.93,331.427,325.215z"/>
	<path style="fill:#B2B2B2;" d="M438.316,234.726c0,1.286-1.042,2.328-2.328,2.328s-2.328-1.042-2.328-2.328
		s1.042-2.328,2.328-2.328S438.316,233.44,438.316,234.726z"/>
	<circle style="fill:#92E3A9;" cx="57.33" cy="323.937" r="2.328"/>
	<circle style="fill:#B2B2B2;" cx="264.736" cy="429.46" r="2.328"/>
	<circle style="fill:#92E3A9;" cx="180.317" cy="338.646" r="2.328"/>
	<path style="fill:#92E3A9;" d="M335.495,150.622c0,1.286-1.042,2.328-2.328,2.328s-2.328-1.042-2.328-2.328
		c0-1.286,1.042-2.328,2.328-2.328S335.495,149.336,335.495,150.622z"/>
</g>
<g id="Text_1_">
	<path style="fill:#92E3A9;stroke:#263238;stroke-miterlimit:10;" d="M121.819,338.875v-49.062H62.156v-29.091l52.02-121.543h39.693
		v123.515h20.463v27.119h-20.463v49.062H121.819z M90.755,262.695h31.064v-86.781L90.755,262.695z M244.347,341.834
		c-11.671,0-21.326-2.465-28.968-7.396c-7.642-4.93-13.398-11.749-17.258-20.463c-3.863-8.71-5.793-18.737-5.793-30.078v-88.507
		c0-11.669,1.849-21.901,5.547-30.694c3.698-8.79,9.368-15.656,17.011-20.586c7.642-4.931,17.462-7.396,29.461-7.396
		c11.996,0,21.82,2.465,29.462,7.396c7.642,4.93,13.314,11.796,17.011,20.586c3.698,8.794,5.547,19.026,5.547,30.694v88.507
		c0,11.341-1.933,21.368-5.793,30.078c-3.863,8.713-9.616,15.532-17.258,20.463C265.674,339.368,256.016,341.834,244.347,341.834z
		 M244.347,312.496c5.093,0,8.876-1.56,11.341-4.685c2.465-3.12,4.106-6.902,4.93-11.34c0.82-4.438,1.233-8.792,1.233-13.067
		v-87.521c0-4.601-0.37-9.161-1.109-13.683c-0.74-4.518-2.342-8.341-4.807-11.465c-2.465-3.12-6.329-4.684-11.588-4.684
		c-5.262,0-9.122,1.564-11.587,4.684c-2.465,3.124-4.068,6.946-4.807,11.465c-0.74,4.522-1.109,9.083-1.109,13.683v87.521
		c0,4.275,0.45,8.629,1.356,13.067c0.9,4.438,2.589,8.22,5.054,11.34C235.719,310.936,239.417,312.496,244.347,312.496z
		 M377.726,338.875v-49.062h-59.665v-29.091l52.022-121.543h39.69v123.515h20.461v27.119h-20.461v49.062H377.726z M346.66,262.695
		h31.066v-86.781L346.66,262.695z"/>
	<g>
		<path style="fill:#B2B2B2;" d="M137.66,393.698v-40.007h14.472v2.914h-10.669v15.015h8.693v2.766h-8.693v16.496h10.767v2.815
			H137.66z"/>
		<path style="fill:#B2B2B2;" d="M157.367,393.698v-40.007h9.039c2.502,0,4.47,0.404,5.902,1.21
			c1.433,0.807,2.461,1.975,3.087,3.507c0.625,1.531,0.938,3.35,0.938,5.457c0,1.482-0.165,2.882-0.494,4.198
			c-0.33,1.318-0.889,2.437-1.679,3.359c-0.79,0.922-1.91,1.532-3.359,1.827l6.125,20.448h-3.655l-5.878-19.657h-6.272v19.657
			H157.367z M161.12,371.274h5.087c1.679,0,2.98-0.279,3.902-0.84c0.921-0.56,1.58-1.383,1.975-2.47
			c0.395-1.087,0.593-2.452,0.593-4.099c0-2.47-0.428-4.313-1.284-5.532c-0.857-1.218-2.552-1.827-5.087-1.827h-5.186V371.274z"/>
		<path style="fill:#B2B2B2;" d="M182.654,393.698v-40.007h9.039c2.502,0,4.47,0.404,5.902,1.21
			c1.432,0.807,2.461,1.975,3.087,3.507c0.625,1.531,0.938,3.35,0.938,5.457c0,1.482-0.165,2.882-0.494,4.198
			c-0.33,1.318-0.889,2.437-1.679,3.359c-0.79,0.922-1.91,1.532-3.359,1.827l6.125,20.448h-3.655l-5.878-19.657h-6.272v19.657
			H182.654z M186.408,371.274h5.087c1.679,0,2.98-0.279,3.902-0.84c0.921-0.56,1.58-1.383,1.975-2.47
			c0.395-1.087,0.593-2.452,0.593-4.099c0-2.47-0.428-4.313-1.284-5.532c-0.857-1.218-2.552-1.827-5.087-1.827h-5.186V371.274z"/>
		<path style="fill:#B2B2B2;" d="M217.376,394.192c-2.635,0-4.701-0.519-6.199-1.556c-1.499-1.037-2.552-2.486-3.161-4.346
			c-0.609-1.86-0.914-3.992-0.914-6.397v-16.595c0-2.436,0.321-4.551,0.963-6.346c0.642-1.795,1.712-3.186,3.211-4.174
			c1.498-0.988,3.531-1.482,6.1-1.482c2.601,0,4.65,0.494,6.149,1.482c1.498,0.988,2.56,2.379,3.186,4.174
			c0.625,1.795,0.939,3.91,0.939,6.346v16.645c0,2.404-0.305,4.527-0.914,6.371c-0.61,1.845-1.655,3.285-3.136,4.322
			C222.117,393.673,220.043,394.192,217.376,394.192z M217.376,391.179c1.778,0,3.128-0.354,4.05-1.062
			c0.921-0.708,1.556-1.696,1.902-2.964c0.346-1.267,0.518-2.741,0.518-4.421v-18.126c0-1.68-0.173-3.144-0.518-4.396
			c-0.346-1.251-0.98-2.214-1.902-2.89c-0.922-0.674-2.272-1.012-4.05-1.012c-1.745,0-3.087,0.338-4.025,1.012
			c-0.938,0.676-1.58,1.639-1.926,2.89c-0.346,1.252-0.519,2.716-0.519,4.396v18.126c0,1.68,0.173,3.154,0.519,4.421
			c0.346,1.268,0.988,2.256,1.926,2.964C214.289,390.825,215.63,391.179,217.376,391.179z"/>
		<path style="fill:#B2B2B2;" d="M233.872,393.698v-40.007h9.039c2.501,0,4.469,0.404,5.902,1.21
			c1.431,0.807,2.461,1.975,3.087,3.507c0.624,1.531,0.938,3.35,0.938,5.457c0,1.482-0.165,2.882-0.493,4.198
			c-0.33,1.318-0.889,2.437-1.68,3.359c-0.791,0.922-1.91,1.532-3.359,1.827l6.126,20.448h-3.655L243.9,374.04h-6.273v19.657
			H233.872z M237.626,371.274h5.087c1.68,0,2.98-0.279,3.902-0.84c0.922-0.56,1.58-1.383,1.975-2.47
			c0.395-1.087,0.593-2.452,0.593-4.099c0-2.47-0.428-4.313-1.284-5.532c-0.856-1.218-2.552-1.827-5.088-1.827h-5.185V371.274z"/>
		<path style="fill:#B2B2B2;" d="M269.236,393.698v-40.007h9.581c2.403,0,4.289,0.444,5.656,1.333
			c1.366,0.889,2.346,2.124,2.939,3.705c0.593,1.58,0.889,3.441,0.889,5.58c0,1.877-0.305,3.614-0.913,5.211
			c-0.609,1.597-1.613,2.873-3.013,3.827c-1.4,0.956-3.235,1.432-5.507,1.432h-5.878v18.917H269.236z M272.989,371.965h4.792
			c1.612,0,2.921-0.238,3.926-0.716c1.004-0.477,1.737-1.276,2.198-2.396c0.461-1.118,0.691-2.634,0.691-4.544
			c0-2.041-0.198-3.63-0.592-4.766c-0.396-1.135-1.079-1.926-2.05-2.371c-0.972-0.444-2.346-0.667-4.125-0.667h-4.84V371.965z"/>
		<path style="fill:#B2B2B2;" d="M288.892,393.698l8.447-40.007h3.951l8.496,40.007h-3.704l-1.975-10.717h-9.533l-2.025,10.717
			H288.892z M295.116,380.263h8.495l-4.297-21.584L295.116,380.263z"/>
		<path style="fill:#B2B2B2;" d="M323.567,394.241c-2.503,0-4.47-0.527-5.902-1.581c-1.432-1.053-2.445-2.543-3.037-4.469
			c-0.593-1.926-0.889-4.157-0.889-6.692V365.89c0-2.569,0.287-4.791,0.864-6.668c0.576-1.876,1.596-3.334,3.062-4.371
			c1.465-1.038,3.532-1.556,6.199-1.556c2.402,0,4.304,0.444,5.705,1.334c1.398,0.889,2.412,2.189,3.037,3.902
			c0.625,1.712,0.939,3.803,0.939,6.272v1.383h-3.556v-1.383c0-1.909-0.173-3.49-0.519-4.742c-0.346-1.251-0.947-2.189-1.803-2.815
			c-0.857-0.625-2.124-0.939-3.803-0.939c-1.811,0-3.178,0.395-4.099,1.185c-0.922,0.79-1.524,1.877-1.803,3.26
			c-0.28,1.383-0.42,2.964-0.42,4.742v16.448c0,1.944,0.173,3.605,0.519,4.988c0.346,1.383,0.988,2.437,1.926,3.162
			c0.938,0.725,2.263,1.087,3.976,1.087c1.646,0,2.921-0.371,3.827-1.112c0.905-0.741,1.539-1.802,1.902-3.185
			c0.362-1.383,0.543-3.063,0.543-5.038v-4.693h-5.927v-2.815h9.384v19.362h-2.421l-0.444-4.544
			c-0.493,1.548-1.309,2.783-2.444,3.704C327.246,393.779,325.641,394.241,323.567,394.241z"/>
		<path style="fill:#B2B2B2;" d="M340.161,393.698v-40.007h14.471v2.914h-10.668v15.015h8.693v2.766h-8.693v16.496h10.767v2.815
			H340.161z"/>
	</g>
</g>
<g id="Shadow">
	<g style="opacity:0.3;">
		<path d="M320.696,285.13c0.045,0.039,0.087,0.079,0.133,0.117c0.174,0.141,0.361,0.272,0.564,0.394
			c0.049,0.029,0.103,0.055,0.153,0.083c0.172,0.096,0.356,0.185,0.551,0.267c0.066,0.028,0.131,0.057,0.2,0.083
			c0.251,0.096,0.518,0.183,0.809,0.256c0.045,0.011,0.096,0.019,0.142,0.03c0.259,0.06,0.536,0.111,0.829,0.153
			c0.093,0.013,0.186,0.026,0.282,0.038c0.353,0.042,0.72,0.075,1.123,0.09c0.002,0,0.003,0,0.004,0
			c1.363,0.051,2.766-0.214,4.128-0.755c0.681-0.271,1.351-0.61,2.001-1.014c0.433-0.269,0.857-0.567,1.269-0.893
			c0.206-0.163,0.409-0.332,0.608-0.508c0.399-0.352,0.784-0.731,1.152-1.135c3.314-3.634,5.268-9.304,3.649-15.982
			c-0.403-1.66-0.834-3.229-1.287-4.724c-0.763-2.514-1.596-4.804-2.503-6.849c-0.241-0.543-0.487-1.07-0.739-1.58
			c-0.602-1.221-1.236-2.334-1.896-3.362c-0.443-0.69-0.895-1.349-1.364-1.953c-1.168-1.502-2.416-2.734-3.745-3.693
			c-0.332-0.24-0.67-0.462-1.012-0.668c-0.084-0.051-0.177-0.093-0.266-0.139l-7.42,17.337v19.246
			c0.712,1.976,1.191,3.756,2.447,4.979c-0.008-0.001-0.015-0.002-0.023-0.003C320.551,285.01,320.625,285.069,320.696,285.13z"/>
		<path d="M296.367,279.963v-34.292c-0.982,0.036-1.877,0.079-2.667,0.127c0.036-1.075,0.187-8.32-1.809-16.095
			c-0.095-6.881-2.919-13.131-7.448-17.408c-0.474-6.648-4.184-14.4-8.331-19.845c0.104,0.006,0.204,0.028,0.311,0.017
			c1.662-0.18,2.697-2.254,3.429-5.836c0.1-0.491,0.175-0.952,0.234-1.396c1.311-0.881,2.936-2.187,3.7-3.655
			c0.408-0.785,0.804-2.083,0.98-3.581c1.325-0.786,3.119-2.073,4.914-4.064c1.281-1.42,2.157-3.398,2.543-5.556
			c-0.436-1.253-0.898-2.484-1.403-3.683c-2.216-5.269-5.157-9.831-8.79-13.714c-1.043-0.546-2.172-1.014-3.395-1.343
			c-1.112-0.299-2.209-0.437-3.286-0.463c-3.082-0.635-9.547-1.727-18.409-1.943c-2.987-0.073-5.672-0.055-8.079,0.09
			c-2.049-0.877-4.287-1.268-6.591-1.018c-1.408,0.153-2.739,0.539-3.979,1.104c-3.809-0.997-7.655-1.258-10.811-0.915
			c-0.759,0.082-1.509,0.18-2.241,0.285c-0.026-0.378-0.053-0.756-0.094-1.135c-0.079-0.732-0.195-1.451-0.327-2.163
			c0.088-1.321,0.096-2.661,0.021-4.013c-3.647,1.173-6.968,2.717-9.951,4.642c-7.643,4.93-13.313,11.796-17.011,20.586
			c-3.698,8.794-5.547,19.026-5.547,30.694v8.782c3.577,4.633,7.902,9.815,10.752,11.809c0.211,0.219,0.419,0.432,0.625,0.637
			c0.198,3.447,0.801,11.223,2.303,13.779c0,0-1.173,4.127,0.82,6.21c-0.606,4.623-1.417,16.197,3.382,27.591
			c3.729,8.855,10.096,13.633,16.635,15.154v-83.47c0-4.601,0.37-9.161,1.109-13.683c0.74-4.518,2.342-8.341,4.807-11.465
			c2.465-3.12,6.325-4.684,11.587-4.684c5.259,0,9.122,1.564,11.588,4.684c2.465,3.124,4.068,6.946,4.807,11.465
			c0.74,4.522,1.109,9.083,1.109,13.683v87.521c0,1.473-0.067,2.959-0.165,4.451c0.054,0.288,0.113,0.558,0.182,0.802
			c-0.001,0-0.002-0.001-0.002-0.001c0.002,0.006,0.004,0.01,0.006,0.015c0.086,0.302,0.185,0.569,0.294,0.813
			c0.022,0.05,0.047,0.094,0.07,0.142c0.094,0.191,0.195,0.365,0.304,0.523c0.028,0.041,0.056,0.085,0.086,0.124
			c0.138,0.182,0.285,0.347,0.446,0.489c0.005,0.004,0.011,0.008,0.016,0.012c0.156,0.135,0.325,0.251,0.502,0.356
			c0.044,0.026,0.09,0.052,0.136,0.077c0.161,0.087,0.329,0.168,0.506,0.239c0.032,0.013,0.061,0.028,0.094,0.04
			c0.212,0.081,0.437,0.155,0.673,0.222c0.051,0.015,0.105,0.029,0.157,0.043c0.197,0.054,0.402,0.107,0.615,0.158
			c0.076,0.018,0.154,0.038,0.231,0.056c0.241,0.056,0.488,0.113,0.748,0.174c3.623,0.842,9.8-4.067,11.383-9.007
			c0.306-0.956,0.546-2.085,0.736-3.282c0.199-0.029,0.399-0.056,0.597-0.091C282.613,280.396,289.235,281.331,296.367,279.963z
			 M273.416,189.291c-0.01-0.01-0.019-0.019-0.029-0.029c0.021-0.142,0.041-0.283,0.062-0.428
			C273.43,189.019,273.417,189.182,273.416,189.291z M273.725,186.795c0.066-0.506,0.13-1.005,0.192-1.492l0.026,0.007
			C273.869,185.832,273.794,186.333,273.725,186.795z"/>
		<path d="M153.868,207.262c-1.289,3.224-2.428,6.135-3.008,7.762c-1.841,5.164-3.771,10.978-3.727,14.335
			c0.045,3.358,2.109,7.617,3.725,7.762c1.61,0.144,2.769-0.935,3.01-3.184V207.262z"/>
	</g>
</g>
<g id="Character">
	<g>
		<g>
			<path style="fill:#DEDEDE;stroke:#263238;stroke-miterlimit:10;" d="M269.134,217.184c0,0,0.99,7.486,0.932,15.085
				c-0.057,7.6,1.726,7.759,5.349,8.602s9.8-4.067,11.383-9.006c1.582-4.94,1.431-14.459,1.431-14.459L269.134,217.184z"/>
			<path style="fill:#DEDEDE;stroke:#263238;stroke-miterlimit:10;" d="M285.668,226.336c-0.163,3.373-1.165,8.779-6.174,11.443
				c-4.245,2.257-7.936,0.268-8.962-0.39c0.742,2.64,2.37,2.898,4.883,3.482c3.623,0.842,9.8-4.067,11.383-9.007
				c1.582-4.94,1.431-14.459,1.431-14.459l-2.23-0.026C285.918,219.879,285.778,224.067,285.668,226.336z"/>
		</g>
		<path style="fill:#DEDEDE;stroke:#263238;stroke-miterlimit:10;" d="M251.9,224.353c0,0,5.991-0.121,14.141-3.125
			c8.15-3.004,17.298-9.826,15.337-16.499c-1.961-6.674-12.581-8.522-16.769-8.067c-4.189,0.455-9,1.684-9,1.684
			S256.59,217.133,251.9,224.353z"/>
		<path style="fill:#92E3A9;stroke:#263238;stroke-miterlimit:10;" d="M247.958,227.077c0,0,5.354-1.111,8.601-5.349
			c3.248-4.238,4.447-11.078,2.714-15.658C257.54,201.49,247.958,227.077,247.958,227.077z"/>
		<path style="fill:#DEDEDE;stroke:#263238;stroke-miterlimit:10;" d="M215.825,183.242c0,0-3.139,14.998,3.048,29.689
			c6.187,14.691,19.633,18.175,29.085,14.146s11.713-17.342,11.813-26.182c0.099-8.84-0.162-12.873-0.162-12.873
			S227.807,191.123,215.825,183.242z"/>
		<path style="fill:#92E3A9;stroke:#263238;stroke-miterlimit:10;" d="M214.672,179.129c0,0-1.408,4.921,1.438,6.731
			c2.846,1.81,17.558,10.454,35.034,7.143c9.757-1.849,7.611-4.712,7.441-6.283C258.414,185.149,214.672,179.129,214.672,179.129z"
			/>
		<path style="fill:#FFFFFF;stroke:#263238;stroke-miterlimit:10;" d="M212.287,163.672c0,0,0.436,12.137,2.385,15.457
			c1.95,3.32,27.768,13.406,40.881,10.569c13.113-2.837,34.447-14.514,37.047-23.096c2.599-8.582-4.159-22.085-10.518-28.579
			s-9.148-7.78-9.148-7.78s-15.58,20.764-34.964,27.638C218.585,164.754,212.287,163.672,212.287,163.672z"/>
		<g>
			<path style="fill:#FFFFFF;stroke:#263238;stroke-miterlimit:10;" d="M315.214,194.342c0,0,13.72-5.375,19.198-2.085
				c5.479,3.29,9.667,10.958,12.546,22.83c2.879,11.872-5.537,20.556-12.806,20.286c-7.269-0.27-6.017-4.997-8.836-9.812
				c-2.819-4.815-6.301-7.615-6.533-8.12C318.552,216.936,322.02,201.726,315.214,194.342z"/>
			<path style="fill:#FFFFFF;stroke:#263238;stroke-miterlimit:10;" d="M334.412,192.257c-1.464-0.879-3.518-1.136-5.741-1.045
				c2.775,2.055,8.261,7.075,11.848,16.628c4.969,13.234,2.723,20.189,0.177,22.761c-2.546,2.572-7.918,3.509-10.244,3.232
				c-0.381-0.045-0.827-0.099-1.302-0.155c0.996,0.977,2.49,1.603,5.001,1.696c7.27,0.27,15.685-8.414,12.806-20.286
				C344.079,203.215,339.891,195.546,334.412,192.257z"/>
		</g>
		<path style="fill:#FFFFFF;stroke:#263238;stroke-miterlimit:10;" d="M286.206,228.043c0,0,12.941,3.715,24.954-1.121
			c12.012-4.837,19.089-12.846,16.437-22.623c-2.651-9.778-7.633-10.119-18.568-9.991c-10.934,0.128-13.128,1.073-13.128,1.073
			S295.544,222.967,286.206,228.043z"/>
		
			<ellipse transform="matrix(0.094 -0.9956 0.9956 0.094 73.8776 439.5362)" style="fill:#92E3A9;stroke:#263238;stroke-miterlimit:10;" cx="278.426" cy="179.179" rx="23.963" ry="22.12"/>
		
			<ellipse transform="matrix(0.094 -0.9956 0.9956 0.094 52.2255 471.496)" style="fill:#92E3A9;stroke:#263238;stroke-miterlimit:10;" cx="285.162" cy="207.054" rx="21.736" ry="20.064"/>
		<path style="fill:#FFFFFF;stroke:#263238;stroke-miterlimit:10;" d="M302.36,194.679c0,0,0.9-19.346-8.554-29.974
			c-9.454-10.628-30.937-1.937-34.504,13.99c-3.567,15.927,3.974,39.831,13.827,46c9.853,6.17,18.204,0.141,23.808-8.414
			C302.541,207.727,302.36,194.679,302.36,194.679z"/>
		<g>
			<g>
				<path style="fill:#DEDEDE;stroke:#263238;stroke-miterlimit:10;" d="M168.846,140.485c0,0-7.48,18.106-9.321,23.27
					c-1.841,5.164-3.771,10.978-3.727,14.336c0.045,3.358,2.108,7.617,3.725,7.762c1.617,0.145,2.78-0.942,3.014-3.21
					c0.234-2.267,0.131-3.217,1.277-4.462c1.146-1.245,4.72-3.715,5.178-3.925c0.458-0.21,0.805,1.514-0.272,3.392
					c-1.077,1.878-3.454,3.578-1.965,5.497c1.49,1.92,4.448-0.323,6.034-1.937c1.586-1.613,3.21-4.352,3.867-7.145
					c0.657-2.793,0.338-8.683,0.338-8.683l13.215-12.484C190.21,152.896,172.688,150.796,168.846,140.485z"/>
				<path style="fill:none;stroke:#263238;stroke-miterlimit:10;" d="M169.673,176.103c0,0-0.2,2.584,4.617,2.701"/>
				<path style="fill:none;stroke:#263238;stroke-miterlimit:10;" d="M156.951,173.962c0,0,1.341,4.978,6.863,4.218"/>
				<path style="fill:none;stroke:#263238;stroke-miterlimit:10;" d="M156.514,180.903c0,0,3.263,2.53,5.747-0.212"/>
				<path style="fill:none;stroke:#263238;stroke-miterlimit:10;" d="M163.294,156.059c0,0-0.436,9.921,13.701,9.321"/>
			</g>
			<path style="fill:#92E3A9;stroke:#263238;stroke-miterlimit:10;" d="M172.586,135.115c0,0-3.516,0.062-3.74,5.37
				c-0.224,5.308,4.028,13.493,12.181,14.849c8.154,1.356,13.228-3.519,14.715-7.523
				C197.229,143.807,178.167,131.947,172.586,135.115z"/>
			<path style="fill:#DEDEDE;stroke:#263238;stroke-miterlimit:10;" d="M181.745,120.67c0,0-8.639,10.386-10.146,15.673
				c-1.507,5.288,2.266,14.965,11.844,16.167c9.578,1.201,15.275-6.783,15.275-6.783L181.745,120.67z"/>
			<path style="fill:#92E3A9;stroke:#263238;stroke-miterlimit:10;" d="M186.691,112.286c0,0-6.174,5.22-6.602,13.692
				c-0.428,8.472,7.374,18.24,17.553,17.302C207.82,142.344,195.073,111.881,186.691,112.286z"/>
		</g>
		<path style="fill:#92E3A9;stroke:#263238;stroke-miterlimit:10;" d="M190.945,118.563c0,0-4.531,5.456-1.934,14.621
			c2.597,9.165,9.071,14.226,9.071,14.226s12.525,18.014,17.792,20.805c5.267,2.79,14.566,2.901,33.43-4.752
			c18.864-7.654,26.292-18.868,29.189-24.627c2.897-5.759-14.072-32.257-19.934-36.104c-5.862-3.847-13.524-5.096-19.062-4.494
			c-5.539,0.602-10.675,1.96-10.675,1.96L190.945,118.563z"/>
		<path style="fill:#FFFFFF;stroke:#263238;stroke-miterlimit:10;" d="M187.594,115.551c0,0-4.531,5.456-1.934,14.621
			c2.597,9.165,9.071,14.226,9.071,14.226s12.525,18.014,17.792,20.805c5.267,2.79,14.566,2.901,33.43-4.752
			s26.292-18.868,29.189-24.627s-14.072-32.257-19.934-36.104c-5.862-3.847-13.523-5.096-19.063-4.494
			c-5.539,0.602-10.675,1.96-10.675,1.96L187.594,115.551z"/>
		
			<ellipse transform="matrix(0.274 -0.9617 0.9617 0.274 55.4651 268.3768)" style="fill:#92E3A9;stroke:#263238;stroke-miterlimit:10;" cx="205.487" cy="97.452" rx="28.489" ry="28.489"/>
		
			<ellipse transform="matrix(0.6193 -0.7852 0.7852 0.6193 5.9806 192.4056)" style="fill:#ABABAB;stroke:#263238;stroke-miterlimit:10;" cx="201.391" cy="90.036" rx="32.17" ry="32.17"/>
		<g>
			<path style="fill:#263238;stroke:#263238;stroke-miterlimit:10;" d="M223.458,94.586c0.333-0.67,0.762-1.86,0.638-3.39
				c-0.197-2.415-2.907-6.874-4.038-8.081s-2.863,0.216-2.863,0.216l-1.999-3.592c-4.82-8.662-15.749-11.776-24.411-6.956
				c-8.662,4.82-11.776,15.749-6.956,24.411l4.145,7.448l-2.321-3.758c0,0-2.123,0.722-1.693,2.319
				c0.43,1.597,2.79,6.251,4.739,7.69c1.384,1.023,2.764,1.226,3.455,1.26l5.469,9.827c2.358,0.276,4.782,0.303,7.243,0.036
				c10.827-1.176,19.805-7.601,24.697-16.462L223.458,94.586z"/>
			<path style="fill:#FFFFFF;stroke:#263238;stroke-miterlimit:10;" d="M215.037,85.593c-3.642-6.544-11.9-8.897-18.444-5.255
				l-2.45,1.364c-6.545,3.642-8.898,11.9-5.256,18.444l12.274,22.056c1.223,0.01,2.459-0.049,3.704-0.184
				c9.61-1.044,17.756-6.227,22.888-13.574L215.037,85.593z"/>
			<path style="fill:#263238;" d="M199.953,98.95c0.461,0.828,0.429,1.725-0.072,2.004c-0.5,0.278-1.28-0.167-1.741-0.995
				c-0.461-0.828-0.429-1.725,0.072-2.004C198.713,97.677,199.492,98.122,199.953,98.95z"/>
			<path style="fill:#263238;" d="M210.117,93.294c0.461,0.828,0.429,1.725-0.072,2.004c-0.5,0.278-1.28-0.167-1.74-0.995
				c-0.461-0.828-0.429-1.725,0.072-2.004C208.877,92.021,209.656,92.466,210.117,93.294z"/>
			<polyline style="fill:none;stroke:#263238;stroke-miterlimit:10;" points="205.126,94.637 210.351,101.139 205.6,103.324 			"/>
			<path style="fill:#263238;" d="M212.878,106.504c0.458,0.823,0.162,1.861-0.661,2.318c-0.823,0.458-1.861,0.162-2.318-0.661
				c-0.458-0.823-0.162-1.861,0.661-2.318C211.382,105.385,212.42,105.681,212.878,106.504z"/>
			<path style="fill:none;stroke:#263238;stroke-miterlimit:10;" d="M192.877,97.782c0,0,0.757-3.175,4.965-3.451"/>
			<path style="fill:none;stroke:#263238;stroke-miterlimit:10;" d="M204.403,90.45c0,0,1.108-3.37,5.549-2.4"/>
			<path style="fill:none;stroke:#263238;stroke-miterlimit:10;" d="M207.383,117.25c0,0,3.546,1.01,6.039,0.541
				c2.493-0.469,4.498-1.815,5.432-3.023c0.934-1.208,2.197-5.124,2.197-5.124"/>
		</g>
		<path style="fill:#FFFFFF;stroke:#263238;stroke-miterlimit:10;" d="M177.723,108.62c-1.919-17.663,10.844-33.537,28.507-35.456
			c10.202-1.108,19.802,2.689,26.466,9.492c-3.657-15.595-18.449-26.376-34.779-24.602c-17.663,1.919-30.426,17.793-28.507,35.456
			c0.811,7.46,4.117,14.04,8.99,19.015C178.101,111.253,177.868,109.952,177.723,108.62z"/>
		<g>
			
				<ellipse transform="matrix(0.9942 -0.108 0.108 0.9942 -10.5418 27.9395)" style="fill:#92E3A9;stroke:#263238;stroke-miterlimit:10;" cx="252.702" cy="111.305" rx="14.484" ry="16.364"/>
			<path style="fill:#FFFFFF;stroke:#263238;stroke-miterlimit:10;" d="M286.039,98.368c0,0-7.792-2.095-20.434-2.403
				c-12.642-0.308-20.073,0.92-22.472,7.204c-2.399,6.285-1.855,16.452,5.934,19.809c4.349,1.874,10.733,0.795,15.381-0.27
				c4.647-1.065,16.04-5.805,19.622-11.518C287.652,105.477,287.724,100.986,286.039,98.368z"/>
			<path style="fill:#92E3A9;stroke:#263238;stroke-miterlimit:10;" d="M299.273,107.997c0,0-4.18-7.531-11.973-9.626
				c-7.792-2.095-14.941,3.024-18.183,7.999c-3.242,4.975-1.8,6.64-1.8,6.64s11.426-5.724,17.335-6.786
				C290.559,105.161,299.273,107.997,299.273,107.997z"/>
			<path style="fill:#FFFFFF;stroke:#263238;stroke-miterlimit:10;" d="M267.027,118.084c0,0-1.833-5.264,5.551-12.09
				c7.384-6.826,20.958-4.378,25.376,0.185c4.418,4.563,3.891,12.606,0.39,16.488c-3.501,3.883-7.01,5.104-7.01,5.104
				S284.457,116.051,267.027,118.084z"/>
			<path style="fill:#FFFFFF;stroke:#263238;stroke-miterlimit:10;" d="M260.865,128.42c0,0,2.833-7.452,6.162-10.336
				c3.329-2.883,13.283-4.105,20.705-1.549c7.422,2.556,6.109,11.104,4.719,13.777c-1.391,2.673-5.641,4.815-5.641,4.815
				L260.865,128.42z"/>
			<g>
				<path style="fill:#FFFFFF;stroke:#263238;stroke-miterlimit:10;" d="M261.714,127.207c0,0-1.508,0.304-3.019,1.869
					c-1.511,1.565-1.99,2.318-5.024,4.048c-3.034,1.73-6.249,1.799-5.057,5.032c1.192,3.233,5.622,2.751,7.807,2.234
					c2.185-0.518,3.079-1.315,4.759-2.618c1.68-1.303,2.947-10.267,3.041-10.697C264.315,126.644,261.714,127.207,261.714,127.207z"
					/>
				<path style="fill:#FFFFFF;stroke:#263238;stroke-miterlimit:10;" d="M269.657,124.243c0,0-4.458-1.057-6.646,0.722
					c-2.188,1.779-2.005,8.623-1.831,12.807c0.174,4.184,1.658,7.525,3.256,8.052c1.598,0.527,3.245,0.208,3.877-0.421
					c0.632-0.629-0.03-6.721,0.413-11.672C269.169,128.779,269.657,124.243,269.657,124.243z"/>
				<path style="fill:#FFFFFF;stroke:#263238;stroke-miterlimit:10;" d="M269.657,124.243c0,0-1.996,4.84-2.577,9.806
					c-0.581,4.966,2.109,11.678,3.154,12.266s3.967,0.41,4.647-1.065c0.68-1.475,0.183-6.487,0.261-9.426
					c0.077-2.939,1.492-9.257,1.282-11.195C276.213,122.69,271.846,122.464,269.657,124.243z"/>
				<path style="fill:#FFFFFF;stroke:#263238;stroke-miterlimit:10;" d="M276.424,124.628c0,0,2.664-1.27,4.599-0.219
					c1.935,1.051,2.39,3.943,2.125,5.373c-0.265,1.43-1.162,9.932-1.783,11.961c-0.62,2.029-2.191,3.04-3.468,2.898
					c-1.276-0.142-2.149-1.728-2.344-3.528c-0.196-1.8-0.411-5.29-0.411-5.29L276.424,124.628z"/>
				<path style="fill:#FFFFFF;stroke:#263238;stroke-miterlimit:10;" d="M283.138,127.121c0,0,3.597,0.87,4.656,1.596
					c1.059,0.725,1.454,3.064,0.722,6.646c-0.732,3.582-1.767,5.656-3.429,5.836c-1.661,0.181-3.01-1.914-3.007-3.176
					C282.084,136.762,283.454,130.029,283.138,127.121z"/>
			</g>
		</g>
		<path style="fill:#92E3A9;stroke:#263238;stroke-miterlimit:10;" d="M235.675,129.827c2.251,3.637,1.455,8.207-1.777,10.207
			c-3.232,2.001-7.678,0.675-9.929-2.962c-2.251-3.636-1.455-8.206,1.777-10.207C228.979,124.865,233.424,126.191,235.675,129.827z"
			/>
		<path style="fill:#263238;" d="M217.954,142.07c1.578,2.549,1.02,5.753-1.246,7.155c-2.266,1.403-5.382,0.473-6.96-2.076
			c-1.578-2.549-1.02-5.753,1.246-7.155C213.26,138.591,216.376,139.521,217.954,142.07z"/>
		<path style="fill:#ABABAB;stroke:#263238;stroke-miterlimit:10;" d="M232.463,148.159c1.578,2.549,1.02,5.752-1.246,7.155
			c-2.266,1.402-5.382,0.473-6.96-2.076c-1.578-2.549-1.02-5.752,1.246-7.155C227.769,144.681,230.885,145.61,232.463,148.159z"/>
	</g>
</g>
</svg>
